<svg height="20" viewBox="0 0 18 20" width="18" xmlns="http://www.w3.org/2000/svg"><g style="stroke:#000;stroke-width:2;fill:none;fill-rule:evenodd;stroke-linecap:round;stroke-linejoin:round" transform="translate(-3 -2)"><path d="m15.353238 17.7008719.006762-.2765476c0-.6810811.16-1.2291892.48-1.6443243 2.24-1.9520715 3.36-3.8189394 3.36-5.6006037 0-3.96507085-3.2235498-7.1793963-7.2-7.1793963s-7.2 3.21432545-7.2 7.1793963c0 1.7704933 1.12 3.6373612 3.36 5.6006037.28444444.369009.44246914.8430831.47407407 1.4222222l.0087309.4005576.01001774.2014483.01963477.2205684c.00420745.0381396.00891579.0769146.0141751.1162442l.0385683.241988c.21457998 1.1543136.93966398 2.6169713 3.27479912 2.6169713 2.3351351 0 3.0602191-1.4626577 3.2747991-2.6169713l.0385683-.241988.0253449-.2286764z"/><path d="m8.70018035 17.0057125c1.0374945.3893817 2.13743435.5840726 3.29981965.5840726s2.2623853-.1946909 3.3-.5840726"/></g></svg>